<svg width="32" height="32" viewBox="0 0 32 32" fill="none" xmlns="http://www.w3.org/2000/svg">
<path d="M16.0013 29.3327C12.4651 29.3327 9.0737 27.9279 6.57321 25.4274C4.07273 22.927 2.66797 19.5356 2.66797 15.9993C2.66797 12.4631 4.07273 9.07174 6.57321 6.57126C9.0737 4.07077 12.4651 2.66602 16.0013 2.66602C19.5375 2.66602 22.9289 3.9303 25.4294 6.18073C27.9299 8.43117 29.3346 11.4834 29.3346 14.666C29.3346 16.4341 28.6323 18.1298 27.382 19.3801C26.1318 20.6303 24.4361 21.3327 22.668 21.3327H19.668C19.2346 21.3327 18.8099 21.4533 18.4413 21.6812C18.0727 21.909 17.7748 22.2349 17.581 22.6225C17.3872 23.0101 17.3051 23.444 17.3441 23.8756C17.383 24.3071 17.5413 24.7194 17.8013 25.066L18.2013 25.5994C18.4613 25.946 18.6196 26.3582 18.6585 26.7898C18.6975 27.2214 18.6154 27.6553 18.4216 28.0428C18.2278 28.4304 17.93 28.7564 17.5613 28.9842C17.1927 29.212 16.768 29.3327 16.3346 29.3327H16.0013Z" stroke="#2B2E33" stroke-width="1.33333" stroke-linecap="round" stroke-linejoin="round"/>
<path d="M17.9987 9.33333C18.3669 9.33333 18.6654 9.03486 18.6654 8.66667C18.6654 8.29848 18.3669 8 17.9987 8C17.6305 8 17.332 8.29848 17.332 8.66667C17.332 9.03486 17.6305 9.33333 17.9987 9.33333Z" fill="#2B2E33" stroke="#2B2E33" stroke-width="1.33333" stroke-linecap="round" stroke-linejoin="round"/>
<path d="M23.3346 14.6673C23.7028 14.6673 24.0013 14.3688 24.0013 14.0007C24.0013 13.6325 23.7028 13.334 23.3346 13.334C22.9664 13.334 22.668 13.6325 22.668 14.0007C22.668 14.3688 22.9664 14.6673 23.3346 14.6673Z" fill="#2B2E33" stroke="#2B2E33" stroke-width="1.33333" stroke-linecap="round" stroke-linejoin="round"/>
<path d="M8.66667 17.3333C9.03486 17.3333 9.33333 17.0349 9.33333 16.6667C9.33333 16.2985 9.03486 16 8.66667 16C8.29848 16 8 16.2985 8 16.6667C8 17.0349 8.29848 17.3333 8.66667 17.3333Z" fill="#2B2E33" stroke="#2B2E33" stroke-width="1.33333" stroke-linecap="round" stroke-linejoin="round"/>
<path d="M11.3346 10.6673C11.7028 10.6673 12.0013 10.3688 12.0013 10.0007C12.0013 9.63246 11.7028 9.33398 11.3346 9.33398C10.9664 9.33398 10.668 9.63246 10.668 10.0007C10.668 10.3688 10.9664 10.6673 11.3346 10.6673Z" fill="#2B2E33" stroke="#2B2E33" stroke-width="1.33333" stroke-linecap="round" stroke-linejoin="round"/>
</svg>
