<svg width="32" height="32" viewBox="0 0 32 32" fill="none" xmlns="http://www.w3.org/2000/svg">
<path d="M16.0472 16.9079C15.9991 16.7873 15.9875 16.6553 16.0136 16.5281C16.0398 16.401 16.1027 16.2843 16.1945 16.1925C16.2863 16.1007 16.403 16.0379 16.5301 16.0117C16.6572 15.9855 16.7893 15.9972 16.9099 16.0452L28.9099 20.7119C29.0385 20.7622 29.1484 20.8512 29.2243 20.9666C29.3002 21.082 29.3383 21.2181 29.3335 21.3562C29.3287 21.4942 29.2811 21.6273 29.1973 21.7372C29.1135 21.847 28.9977 21.9281 28.8659 21.9692L24.2739 23.3932C24.0667 23.4573 23.8782 23.5709 23.7249 23.7243C23.5715 23.8776 23.4579 24.0661 23.3939 24.2732L21.9712 28.8639C21.93 28.9958 21.8489 29.1116 21.7391 29.1953C21.6293 29.2791 21.4962 29.3267 21.3581 29.3315C21.2201 29.3364 21.0839 29.2982 20.9685 29.2223C20.8531 29.1464 20.7641 29.0366 20.7139 28.9079L16.0472 16.9079Z" stroke="#2B2E33" stroke-width="1.33333" stroke-linecap="round" stroke-linejoin="round"/>
<path d="M6.66797 22.666C6.66797 18.4226 8.35368 14.3529 11.3543 11.3523C14.3548 8.35173 18.4245 6.66602 22.668 6.66602" stroke="#2B2E33" stroke-width="1.33333" stroke-linecap="round" stroke-linejoin="round"/>
<path d="M25.3346 9.33333C26.8074 9.33333 28.0013 8.13943 28.0013 6.66667C28.0013 5.19391 26.8074 4 25.3346 4C23.8619 4 22.668 5.19391 22.668 6.66667C22.668 8.13943 23.8619 9.33333 25.3346 9.33333Z" stroke="#2B2E33" stroke-width="1.33333" stroke-linecap="round" stroke-linejoin="round"/>
<path d="M6.66667 28.0003C8.13943 28.0003 9.33333 26.8064 9.33333 25.3337C9.33333 23.8609 8.13943 22.667 6.66667 22.667C5.19391 22.667 4 23.8609 4 25.3337C4 26.8064 5.19391 28.0003 6.66667 28.0003Z" stroke="#2B2E33" stroke-width="1.33333" stroke-linecap="round" stroke-linejoin="round"/>
</svg>
